<svg width="21" height="20" viewBox="0 0 21 20" fill="none" xmlns="http://www.w3.org/2000/svg">
<path d="M11.528 0.000986255C12.2577 -0.00181397 12.9874 0.00552015 13.717 0.0229863L13.911 0.0299863C14.135 0.0379863 14.356 0.0479863 14.623 0.0599863C15.687 0.109986 16.413 0.277986 17.05 0.524986C17.71 0.778986 18.266 1.12299 18.822 1.67899C19.3303 2.17859 19.7238 2.78293 19.975 3.44999C20.222 4.08699 20.39 4.81399 20.44 5.87799C20.452 6.14399 20.462 6.36599 20.47 6.58999L20.476 6.78399C20.4937 7.51318 20.5014 8.24258 20.499 8.97199L20.5 9.71799V11.028C20.5024 11.7577 20.4948 12.4875 20.477 13.217L20.471 13.411C20.463 13.635 20.453 13.856 20.441 14.123C20.391 15.187 20.221 15.913 19.975 16.55C19.7246 17.2177 19.3311 17.8226 18.822 18.322C18.3219 18.8303 17.7173 19.2237 17.05 19.475C16.413 19.722 15.687 19.89 14.623 19.94C14.356 19.952 14.135 19.962 13.911 19.97L13.717 19.976C12.9874 19.9938 12.2577 20.0014 11.528 19.999L10.782 20H9.47297C8.74323 20.0025 8.01349 19.9948 7.28397 19.977L7.08997 19.971C6.85258 19.9624 6.61524 19.9524 6.37797 19.941C5.31397 19.891 4.58797 19.721 3.94997 19.475C3.28265 19.2243 2.6782 18.8308 2.17897 18.322C1.67001 17.8223 1.27619 17.2175 1.02497 16.55C0.777967 15.913 0.609967 15.187 0.559967 14.123C0.54883 13.8857 0.538829 13.6484 0.529967 13.411L0.524967 13.217C0.50653 12.4875 0.498196 11.7577 0.499967 11.028V8.97199C0.497176 8.24259 0.50451 7.51318 0.521967 6.78399L0.528967 6.58999C0.536967 6.36599 0.546967 6.14399 0.558967 5.87799C0.608967 4.81299 0.776967 4.08799 1.02397 3.44999C1.27534 2.78261 1.66993 2.17843 2.17997 1.67999C2.67886 1.17074 3.28293 0.776559 3.94997 0.524986C4.58797 0.277986 5.31297 0.109986 6.37797 0.0599863L7.08997 0.0299863L7.28397 0.0249864C8.01315 0.00655924 8.74255 -0.00177499 9.47197 -1.36727e-05L11.528 0.000986255ZM10.5 5.00099C9.83747 4.99162 9.17972 5.11401 8.56494 5.36105C7.95016 5.6081 7.39061 5.97487 6.91881 6.44004C6.44701 6.90522 6.07237 7.45952 5.81665 8.07075C5.56094 8.68197 5.42926 9.33793 5.42926 10.0005C5.42926 10.663 5.56094 11.319 5.81665 11.9302C6.07237 12.5414 6.44701 13.0958 6.91881 13.5609C7.39061 14.0261 7.95016 14.3929 8.56494 14.6399C9.17972 14.887 9.83747 15.0094 10.5 15C11.826 15 13.0978 14.4732 14.0355 13.5355C14.9732 12.5978 15.5 11.3261 15.5 9.99999C15.5 8.6739 14.9732 7.40213 14.0355 6.46445C13.0978 5.52677 11.826 5.00099 10.5 5.00099ZM10.5 7.00099C10.8985 6.99364 11.2944 7.06578 11.6648 7.21319C12.0351 7.3606 12.3723 7.58033 12.6567 7.85953C12.9412 8.13873 13.1671 8.47182 13.3214 8.83933C13.4757 9.20684 13.5552 9.6014 13.5552 9.99998C13.5553 10.3986 13.4759 10.7931 13.3218 11.1607C13.1677 11.5283 12.9418 11.8614 12.6575 12.1407C12.3731 12.42 12.036 12.6399 11.6657 12.7874C11.2954 12.9349 10.8995 13.0072 10.501 13C9.70532 13 8.94226 12.6839 8.37965 12.1213C7.81704 11.5587 7.50097 10.7956 7.50097 9.99999C7.50097 9.20434 7.81704 8.44127 8.37965 7.87867C8.94226 7.31606 9.70532 6.99999 10.501 6.99999L10.5 7.00099ZM15.75 3.50099C15.4274 3.5139 15.1223 3.65114 14.8986 3.88396C14.6749 4.11678 14.55 4.42712 14.55 4.74999C14.55 5.07285 14.6749 5.38319 14.8986 5.61601C15.1223 5.84884 15.4274 5.98607 15.75 5.99899C16.0815 5.99899 16.3994 5.86729 16.6339 5.63287C16.8683 5.39845 17 5.08051 17 4.74899C17 4.41747 16.8683 4.09952 16.6339 3.8651C16.3994 3.63068 16.0815 3.49899 15.75 3.49899V3.50099Z" fill="white"/>
</svg>
