<svg width="20" height="18" viewBox="0 0 20 18" fill="none" xmlns="http://www.w3.org/2000/svg">
<path d="M4.91998 2.001C4.91972 2.53143 4.70875 3.04004 4.33349 3.41492C3.95823 3.78981 3.44942 4.00027 2.91898 4C2.38855 3.99974 1.87995 3.78877 1.50506 3.41351C1.13018 3.03825 0.919718 2.52943 0.919983 1.999C0.920248 1.46857 1.13122 0.959965 1.50648 0.585079C1.88174 0.210194 2.39055 -0.000264966 2.92098 2.50361e-07C3.45142 0.000265467 3.96002 0.211233 4.3349 0.586494C4.70979 0.961754 4.92025 1.47057 4.91998 2.001ZM4.97998 5.481H0.979983V18.001H4.97998V5.481ZM11.3 5.481H7.31998V18.001H11.26V11.431C11.26 7.771 16.03 7.431 16.03 11.431V18.001H19.98V10.071C19.98 3.901 12.92 4.131 11.26 7.161L11.3 5.481Z" fill="white"/>
</svg>
